<svg width="24" height="24" viewBox="0 0 24 24" fill="none" xmlns="http://www.w3.org/2000/svg">
<g clip-path="url(#clip0_35_4382)">
<path d="M9.17 6L11.17 8H20V18H4V6H9.17ZM10 4H4C2.9 4 2.01 4.9 2.01 6L2 18C2 19.1 2.9 20 4 20H20C21.1 20 22 19.1 22 18V8C22 6.9 21.1 6 20 6H12L10 4Z" fill="white"/>
</g>
<path d="M10.0656 12.0592L10.2696 0.050957L12.2693 0.0849284L12.0653 12.0932L15.0649 12.1442L10.9977 16.0656L7.06602 12.0083L10.0656 12.0592V12.0592Z" fill="white"/>
<defs>
<clipPath id="clip0_35_4382">
<rect width="24" height="24" fill="white"/>
</clipPath>
</defs>
</svg>
